<?xml version="1.0" encoding="UTF-8"?>
<!-- Generator: visioncortex VTracer 0.6.12 -->
<svg version="1.1" xmlns="http://www.w3.org/2000/svg" width="1254" height="1254" viewBox="0 0 1254 1254">
<path d="M0 0 C1.064 -0 2.129 -0.001 3.226 -0.001 C6.116 0 9.005 0.01 11.895 0.024 C14.926 0.037 17.957 0.038 20.988 0.04 C26.714 0.047 32.441 0.063 38.167 0.083 C44.692 0.105 51.217 0.116 57.742 0.126 C71.152 0.147 84.562 0.182 97.972 0.227 C98.876 4.533 98.934 7.892 98.159 12.214 C98.109 12.499 98.109 12.499 97.858 13.943 C97.525 15.835 97.179 17.724 96.832 19.614 C96.59 20.969 96.35 22.325 96.11 23.681 C95.461 27.335 94.8 30.987 94.135 34.638 C93.583 37.681 93.039 40.724 92.495 43.768 C88.267 67.414 83.901 91.035 79.452 114.64 C79.341 115.23 79.23 115.82 79.115 116.428 C78.602 119.155 78.087 121.882 77.57 124.609 C76.427 130.665 75.385 136.729 74.431 142.818 C73.972 145.227 73.972 145.227 72.972 147.227 C58.968 147.297 44.963 147.35 30.959 147.382 C24.455 147.398 17.951 147.419 11.448 147.453 C5.774 147.483 0.1 147.503 -5.574 147.509 C-8.574 147.513 -11.573 147.522 -14.572 147.544 C-17.935 147.566 -21.297 147.569 -24.659 147.568 C-25.636 147.578 -26.612 147.589 -27.617 147.6 C-38.638 147.552 -49.286 145.232 -58.028 138.227 C-67.816 128.269 -71.395 117.872 -71.56 104.259 C-71.395 94.074 -69.583 84.165 -67.778 74.165 C-67.627 73.32 -67.477 72.475 -67.322 71.605 C-63.694 51.433 -58.246 31.79 -43.028 17.227 C-42.342 16.522 -41.656 15.817 -40.949 15.09 C-36.714 10.973 -32.255 8.02 -27.028 5.352 C-26.47 5.066 -25.913 4.779 -25.339 4.484 C-17.166 0.551 -8.959 -0.065 0 0 Z M-13.634 47.219 C-18.122 53.964 -18.948 62.405 -20.278 70.227 C-20.534 71.652 -20.792 73.076 -21.051 74.5 C-25.047 96.718 -25.047 96.718 -22.028 103.227 C-18.957 106.298 -16.314 108.099 -11.883 108.347 C-11.054 108.345 -10.226 108.343 -9.373 108.341 C-8.432 108.341 -7.491 108.34 -6.522 108.34 C-6.016 108.338 -6.016 108.338 -3.453 108.325 C-2.414 108.323 -1.375 108.322 -0.305 108.32 C3.017 108.315 6.338 108.302 9.66 108.29 C11.911 108.285 14.161 108.28 16.412 108.276 C21.932 108.265 27.452 108.248 32.972 108.227 C34.542 99.97 36.107 91.712 37.666 83.452 C38.39 79.617 39.116 75.782 39.845 71.948 C40.55 68.246 41.249 64.544 41.946 60.841 C42.213 59.43 42.48 58.019 42.75 56.608 C43.128 54.629 43.5 52.65 43.871 50.67 C43.977 50.107 43.977 50.107 44.517 47.258 C44.928 44.52 45.063 41.989 44.972 39.227 C38.302 39.074 31.631 38.97 24.959 38.897 C22.692 38.867 20.426 38.827 18.159 38.774 C14.89 38.701 11.622 38.667 8.351 38.641 C7.348 38.61 6.344 38.579 5.31 38.547 C-2.626 38.544 -8.557 40.923 -13.634 47.219 Z " fill="#16A44B" transform="translate(769.027587890625,574.77294921875)"/>
<path d="M0 0 C0.438 0.001 0.438 0.001 2.655 0.007 C4.5 0.017 6.345 0.039 8.189 0.072 C11.02 0.121 13.85 0.133 16.682 0.139 C18.475 0.153 20.269 0.169 22.062 0.188 C22.911 0.193 23.76 0.198 24.635 0.204 C25.027 0.212 25.027 0.212 27.012 0.252 C27.358 0.258 27.358 0.258 29.107 0.284 C30.832 0.559 30.832 0.559 32.832 2.559 C33.163 12.075 30.658 21.989 28.961 31.312 C28.675 32.906 28.39 34.499 28.105 36.092 C27.36 40.256 26.607 44.419 25.854 48.581 C25.092 52.796 24.336 57.013 23.58 61.229 C22.596 66.712 21.61 72.195 20.62 77.677 C20.368 79.07 20.117 80.463 19.866 81.856 C19.323 84.871 18.771 87.883 18.201 90.894 C18.017 91.868 17.834 92.843 17.644 93.847 C17.486 94.672 17.327 95.497 17.164 96.346 C16.847 98.457 16.769 100.429 16.832 102.559 C24.543 94.307 32.184 86.032 39.496 77.422 C45.092 70.844 50.768 64.374 56.66 58.059 C60.043 54.432 63.327 50.739 66.527 46.949 C68.233 45.131 69.355 44.592 71.843 44.418 C72.256 44.415 72.256 44.415 74.342 44.397 C74.809 44.393 74.809 44.393 77.173 44.368 C78.185 44.364 79.196 44.36 80.238 44.355 C81.274 44.35 82.31 44.344 83.377 44.338 C85.569 44.329 87.761 44.322 89.954 44.318 C93.318 44.309 96.682 44.278 100.047 44.246 C102.173 44.24 104.299 44.234 106.426 44.23 C107.437 44.218 108.449 44.206 109.491 44.193 C109.958 44.195 109.958 44.195 112.322 44.202 C112.735 44.2 112.735 44.2 114.821 44.191 C116.832 44.559 116.832 44.559 118.114 46.081 C118.351 46.569 118.588 47.056 118.832 47.559 C112.833 55.154 106.459 62.28 99.84 69.336 C96.983 72.384 94.214 75.497 91.484 78.66 C89.568 80.862 87.607 83.022 85.645 85.184 C81.421 89.861 77.306 94.626 73.233 99.436 C70.963 102.109 68.686 104.75 66.254 107.277 C65.517 108.051 64.779 108.824 64.02 109.621 C63.697 109.947 63.697 109.947 62.062 111.594 C60.832 113.559 60.832 113.559 61.093 115.871 C61.881 118.737 62.961 120.949 64.43 123.531 C64.976 124.499 65.522 125.468 66.085 126.465 C66.688 127.517 67.291 128.569 67.895 129.621 C68.52 130.723 69.144 131.825 69.768 132.927 C71.436 135.868 73.112 138.804 74.791 141.738 C76.183 144.172 77.571 146.607 78.96 149.042 C80.345 151.469 81.731 153.895 83.117 156.322 C84.139 158.111 85.159 159.901 86.179 161.692 C89.054 166.731 91.939 171.761 94.914 176.742 C95.353 177.487 95.791 178.232 96.243 179 C97.023 180.322 97.815 181.638 98.622 182.944 C99.621 184.652 99.621 184.652 100.832 187.559 C99.908 189.74 99.908 189.74 98.832 191.559 C91.964 191.787 85.097 191.945 78.227 192.053 C75.889 192.093 73.557 192.16 71.22 192.238 C67.858 192.347 64.5 192.398 61.137 192.438 C60.616 192.461 60.616 192.461 57.983 192.578 C50.89 192.583 50.89 192.583 47.912 189.699 C46.34 187.385 45.059 185.07 43.832 182.559 C43.245 181.536 42.654 180.516 42.056 179.499 C41.817 179.048 41.817 179.048 40.605 176.766 C40.336 176.261 40.066 175.756 39.788 175.235 C38.923 173.616 38.065 171.994 37.207 170.371 C36.289 168.649 35.369 166.927 34.449 165.205 C33.827 164.04 33.205 162.874 32.583 161.707 C29.514 155.951 26.397 150.221 23.27 144.496 C22.794 143.624 22.318 142.752 21.828 141.853 C18.854 136.408 15.853 130.978 12.832 125.559 C12.502 125.559 12.172 125.559 11.832 125.559 C11.699 126.326 11.565 127.094 11.428 127.885 C10.169 135.126 8.904 142.365 7.633 149.603 C6.98 153.324 6.328 157.045 5.683 160.768 C5.059 164.361 4.43 167.953 3.796 171.544 C3.555 172.913 3.317 174.283 3.081 175.654 C2.749 177.574 2.41 179.494 2.069 181.413 C1.973 181.959 1.973 181.959 1.49 184.724 C0.892 187.299 0.136 189.275 -1.168 191.559 C-7.255 191.609 -13.342 191.644 -19.43 191.668 C-21.502 191.679 -23.574 191.692 -25.646 191.709 C-28.619 191.734 -31.593 191.745 -34.566 191.754 C-35.032 191.759 -35.032 191.759 -37.385 191.785 C-38.246 191.785 -39.107 191.785 -39.994 191.786 C-40.753 191.79 -41.513 191.795 -42.295 191.799 C-44.168 191.559 -44.168 191.559 -46.168 189.559 C-46.406 181.218 -44.256 172.652 -42.789 164.461 C-42.542 163.063 -42.296 161.665 -42.05 160.268 C-41.381 156.47 -40.706 152.674 -40.029 148.878 C-39.313 144.852 -38.601 140.824 -37.889 136.797 C-36.655 129.82 -35.417 122.843 -34.177 115.867 C-32.604 107.017 -31.036 98.165 -29.47 89.314 C-27.654 79.045 -25.835 68.778 -24.015 58.51 C-23.481 55.502 -22.949 52.493 -22.416 49.484 C-21.573 44.721 -20.728 39.958 -19.881 35.195 C-19.569 33.438 -19.257 31.682 -18.947 29.925 C-18.146 25.398 -17.332 20.875 -16.493 16.356 C-16.209 14.783 -15.952 13.205 -15.699 11.627 C-14.962 7.463 -14.09 4.208 -10.777 1.393 C-7.38 -0.369 -3.74 -0.087 0 0 Z " fill="#16A44B" transform="translate(1060.16796875,530.44140625)"/>
<path d="M0 0 C2.234 -0 4.469 -0.002 6.703 -0.004 C11.35 -0.006 15.997 0.006 20.643 0.03 C26.009 0.056 31.375 0.058 36.741 0.046 C41.933 0.035 47.125 0.042 52.317 0.056 C54.517 0.06 56.717 0.061 58.916 0.057 C61.975 0.054 65.033 0.07 68.091 0.092 C68.545 0.09 68.545 0.09 70.844 0.078 C71.675 0.088 72.506 0.098 73.362 0.108 C74.083 0.111 74.804 0.113 75.547 0.116 C78.046 0.615 78.936 1.471 80.449 3.496 C81.023 10.292 79.865 16.973 78.824 23.684 C78.754 24.217 78.754 24.217 78.398 26.916 C78.237 27.947 78.076 28.977 77.91 30.039 C77.774 30.967 77.638 31.896 77.498 32.852 C76.037 36.536 73.838 38.481 70.449 40.496 C67.847 41.144 65.388 41.103 62.719 41.016 C61.969 41.012 61.218 41.008 60.445 41.004 C57.978 40.985 55.513 40.932 53.047 40.879 C51.323 40.862 49.6 40.848 47.877 40.836 C43.346 40.8 38.817 40.736 34.287 40.665 C27.042 40.551 19.796 40.466 12.55 40.406 C10.026 40.379 7.504 40.333 4.981 40.284 C3.423 40.267 1.866 40.251 0.309 40.235 C-0.386 40.216 -1.081 40.198 -1.797 40.178 C-6.74 40.155 -10.137 41.243 -14.551 43.496 C-19.498 48.806 -19.803 57.537 -20.738 64.371 C-21.062 66.619 -21.389 68.866 -21.719 71.113 C-21.856 72.099 -21.993 73.085 -22.134 74.101 C-22.551 76.496 -22.551 76.496 -23.551 78.496 C-23.014 78.494 -23.014 78.494 -20.299 78.483 C-10.205 78.442 -0.11 78.412 9.985 78.392 C15.175 78.382 20.365 78.368 25.555 78.345 C30.561 78.324 35.566 78.312 40.572 78.306 C42.485 78.303 44.398 78.295 46.311 78.285 C48.983 78.27 51.655 78.268 54.328 78.269 C55.125 78.262 55.922 78.255 56.743 78.247 C57.469 78.25 58.195 78.253 58.944 78.256 C59.576 78.254 60.209 78.252 60.86 78.25 C62.449 78.496 62.449 78.496 64.449 80.496 C65.451 87.327 63.861 94.528 62.699 101.246 C62.542 102.261 62.385 103.275 62.223 104.32 C62.139 104.811 62.139 104.811 61.715 107.293 C61.642 107.733 61.642 107.733 61.271 109.96 C60.184 113.316 59.006 115.036 56.449 117.496 C53.667 118.218 50.961 118.129 48.101 118.064 C47.681 118.064 47.681 118.064 45.557 118.066 C42.786 118.062 40.017 118.024 37.246 117.984 C35.324 117.975 33.401 117.968 31.479 117.963 C26.422 117.944 21.365 117.895 16.308 117.839 C11.147 117.788 5.986 117.765 0.824 117.74 C-9.301 117.687 -19.426 117.601 -29.551 117.496 C-29.597 118.195 -29.644 118.893 -29.692 119.613 C-30.298 127.803 -31.437 135.843 -32.766 143.941 C-32.984 145.287 -33.202 146.633 -33.42 147.978 C-33.873 150.771 -34.33 153.562 -34.789 156.354 C-35.377 159.932 -35.953 163.512 -36.527 167.093 C-36.972 169.86 -37.424 172.625 -37.878 175.39 C-38.094 176.711 -38.307 178.033 -38.518 179.354 C-38.811 181.191 -39.115 183.025 -39.422 184.86 C-39.592 185.903 -39.762 186.946 -39.937 188.021 C-40.551 190.496 -40.551 190.496 -42.551 192.496 C-44.847 192.831 -44.847 192.831 -47.73 192.945 C-48.263 192.967 -48.263 192.967 -50.959 193.078 C-51.531 193.096 -51.531 193.096 -54.426 193.184 C-55.004 193.204 -55.583 193.224 -56.178 193.245 C-67.008 193.621 -77.745 193.289 -88.551 192.496 C-93.04 183.518 -86.773 164.595 -85.199 155.133 C-84.858 153.054 -84.518 150.975 -84.178 148.896 C-83.282 143.428 -82.378 137.962 -81.473 132.496 C-80.578 127.082 -79.692 121.667 -78.805 116.252 C-77.242 106.725 -75.663 97.202 -74.074 87.679 C-73.067 81.637 -72.079 75.591 -71.108 69.543 C-70.504 65.789 -69.889 62.036 -69.271 58.284 C-68.989 56.556 -68.712 54.826 -68.44 53.096 C-66.342 39.764 -63.876 26.849 -54.551 16.496 C-54.004 15.881 -53.458 15.266 -52.895 14.633 C-38.627 -0.511 -19.482 -0.111 0 0 Z " fill="#0F1729" transform="translate(194.55078125,529.50390625)"/>
<path d="M0 0 C0.594 -0.006 1.188 -0.011 1.8 -0.017 C3.788 -0.03 5.773 -0.015 7.761 -0.001 C9.186 -0.004 10.612 -0.01 12.038 -0.017 C15.908 -0.031 19.777 -0.02 23.647 -0.003 C27.694 0.011 31.741 0.004 35.788 0.001 C42.582 -0.002 49.376 0.011 56.17 0.035 C64.032 0.061 71.893 0.063 79.755 0.051 C87.313 0.04 94.87 0.047 102.427 0.061 C105.647 0.067 108.866 0.066 112.085 0.062 C115.872 0.057 119.659 0.067 123.446 0.089 C124.839 0.094 126.231 0.095 127.624 0.09 C129.519 0.084 131.414 0.096 133.309 0.114 C134.372 0.116 135.434 0.118 136.528 0.121 C139.028 0.501 139.028 0.501 140.378 1.873 C143.149 8.813 139.504 20.054 138.153 27.189 C137.991 28.074 137.83 28.96 137.664 29.872 C137.498 30.702 137.332 31.533 137.16 32.388 C137.015 33.133 136.869 33.877 136.72 34.645 C135.858 36.956 135.203 37.384 133.028 38.501 C130.883 38.742 130.883 38.742 128.373 38.728 C127.902 38.728 127.902 38.728 125.522 38.728 C124.509 38.717 123.497 38.707 122.453 38.697 C121.934 38.695 121.934 38.695 119.305 38.688 C115.983 38.677 112.662 38.652 109.34 38.626 C107.09 38.616 104.839 38.607 102.588 38.599 C97.068 38.577 91.548 38.543 86.028 38.501 C85.923 39.283 85.818 40.066 85.71 40.871 C84.263 51.358 82.459 61.77 80.614 72.193 C80.277 74.105 79.94 76.017 79.604 77.93 C78.718 82.962 77.829 87.993 76.94 93.024 C75.891 98.96 74.846 104.897 73.801 110.834 C72.935 115.75 72.066 120.666 71.193 125.581 C69.562 134.772 67.942 143.965 66.376 153.168 C65.66 157.367 64.935 161.564 64.21 165.76 C63.867 167.759 63.528 169.758 63.194 171.758 C62.732 174.518 62.256 177.275 61.776 180.032 C61.643 180.85 61.51 181.668 61.373 182.511 C61.24 183.261 61.107 184.01 60.97 184.783 C60.86 185.432 60.749 186.082 60.636 186.751 C59.869 188.959 58.818 190.024 57.028 191.501 C55.048 191.882 55.048 191.882 52.772 191.889 C52.344 191.894 52.344 191.894 50.183 191.918 C49.264 191.912 48.345 191.906 47.399 191.9 C46.453 191.903 45.508 191.905 44.534 191.908 C42.536 191.91 40.538 191.905 38.54 191.892 C35.473 191.876 32.408 191.892 29.342 191.911 C27.403 191.909 25.463 191.906 23.524 191.9 C22.603 191.906 21.682 191.912 20.733 191.918 C20.308 191.913 20.308 191.913 18.154 191.889 C17.779 191.888 17.779 191.888 15.88 191.882 C14.028 191.501 14.028 191.501 12.75 190.231 C11.836 188.042 11.983 186.77 12.339 184.43 C12.459 183.612 12.579 182.794 12.702 181.951 C12.774 181.508 12.774 181.508 13.137 179.263 C13.208 178.797 13.208 178.797 13.569 176.439 C15.086 166.718 16.875 157.046 18.7 147.378 C21.872 130.553 24.89 113.711 27.653 96.814 C30.841 77.325 34.372 57.907 38.028 38.501 C37.393 38.506 36.759 38.51 36.105 38.515 C30.131 38.555 24.157 38.585 18.183 38.605 C15.111 38.615 12.04 38.629 8.968 38.652 C5.438 38.678 1.909 38.688 -1.621 38.697 C-2.726 38.707 -3.831 38.717 -4.97 38.728 C-5.991 38.728 -7.012 38.728 -8.064 38.728 C-8.965 38.733 -9.867 38.737 -10.796 38.742 C-12.972 38.501 -12.972 38.501 -14.972 36.501 C-15.423 29.337 -13.397 21.588 -12.16 14.564 C-12.083 14.102 -12.083 14.102 -11.696 11.764 C-11.534 10.884 -11.371 10.005 -11.203 9.099 C-11.063 8.31 -10.922 7.521 -10.778 6.708 C-8.79 1.262 -5.505 0.001 0 0 Z " fill="#16A44B" transform="translate(480.9723205566406,530.4987945556641)"/>
<path d="M0 0 C0.771 -0.013 1.542 -0.026 2.336 -0.039 C3.17 -0.046 4.003 -0.054 4.862 -0.061 C5.717 -0.069 6.573 -0.077 7.455 -0.086 C9.266 -0.1 11.078 -0.11 12.889 -0.118 C15.664 -0.135 18.437 -0.179 21.211 -0.223 C22.97 -0.234 24.728 -0.242 26.487 -0.249 C26.902 -0.258 26.902 -0.258 29.006 -0.302 C34.704 -0.28 34.704 -0.28 37.297 1.931 C38.371 4.488 38.467 5.81 38.088 8.544 C37.97 9.422 37.851 10.299 37.729 11.203 C36.79 16.919 35.766 22.613 34.678 28.302 C34.441 29.557 34.205 30.812 33.969 32.068 C33.397 35.105 32.82 38.141 32.24 41.177 C32.798 41.17 33.355 41.164 33.929 41.157 C39.72 41.091 45.511 41.045 51.302 41.012 C53.464 40.997 55.626 40.977 57.788 40.951 C60.893 40.914 63.998 40.897 67.104 40.884 C68.073 40.869 69.041 40.853 70.04 40.837 C70.49 40.837 70.49 40.837 72.769 40.836 C73.562 40.83 74.355 40.823 75.171 40.816 C77.766 41.269 78.652 42.115 80.24 44.177 C80.642 47.841 79.817 51.551 79.24 55.177 C79.176 55.588 79.176 55.588 78.852 57.665 C78.401 60.465 77.92 63.259 77.428 66.052 C77.352 66.51 77.352 66.51 76.965 68.827 C76.802 69.703 76.639 70.579 76.471 71.482 C76.331 72.265 76.19 73.049 76.046 73.856 C74.891 77.184 73.936 78.837 71.24 81.177 C67.753 81.876 64.331 81.758 60.787 81.665 C59.772 81.658 58.757 81.651 57.711 81.644 C54.47 81.616 51.231 81.553 47.99 81.49 C45.793 81.464 43.595 81.442 41.397 81.421 C36.011 81.366 30.626 81.282 25.24 81.177 C25.166 81.723 25.092 82.269 25.016 82.832 C23.723 92.283 22.409 101.72 20.635 111.095 C20.504 111.786 20.374 112.477 20.239 113.189 C19.713 115.953 19.18 118.716 18.639 121.477 C15.106 139.606 15.106 139.606 16.24 145.177 C18.165 147.627 19.208 148.166 22.24 149.177 C23.595 149.28 24.954 149.333 26.313 149.351 C26.72 149.357 26.72 149.357 28.78 149.391 C29.218 149.397 29.218 149.397 31.432 149.423 C33.281 149.456 35.131 149.489 36.981 149.523 C39.9 149.57 42.818 149.615 45.737 149.654 C48.552 149.693 51.367 149.745 54.182 149.798 C55.059 149.807 55.936 149.815 56.84 149.824 C57.245 149.832 57.245 149.832 59.297 149.874 C60.012 149.884 60.727 149.895 61.464 149.905 C63.24 150.177 63.24 150.177 65.24 152.177 C65.661 160.306 63.769 168.812 62.428 176.802 C62.275 177.774 62.122 178.747 61.965 179.748 C61.883 180.207 61.883 180.207 61.471 182.529 C61.331 183.352 61.19 184.175 61.046 185.023 C59.989 187.85 58.804 188.615 56.24 190.177 C53.766 190.551 53.766 190.551 50.96 190.549 C49.904 190.556 48.848 190.562 47.761 190.568 C46.622 190.559 45.484 190.55 44.311 190.54 C43.117 190.54 41.923 190.54 40.729 190.542 C38.222 190.542 35.716 190.531 33.209 190.513 C30.038 190.491 26.867 190.49 23.695 190.496 C-14.523 190.554 -14.523 190.554 -25.045 181.13 C-29.364 176.584 -32.186 172.251 -33.76 166.177 C-33.929 165.612 -34.098 165.048 -34.272 164.466 C-36.932 151.983 -33.586 138.567 -31.322 126.294 C-30.959 124.271 -30.597 122.248 -30.236 120.225 C-29.284 114.904 -28.316 109.586 -27.345 104.268 C-26.39 99.022 -25.448 93.773 -24.506 88.525 C-23.386 82.294 -22.264 76.063 -21.128 69.835 C-19.208 59.3 -17.337 48.76 -15.552 38.201 C-15.021 35.089 -14.488 31.978 -13.955 28.866 C-13.619 26.888 -13.289 24.91 -12.965 22.931 C-12.518 20.203 -12.053 17.479 -11.584 14.756 C-11.458 13.956 -11.332 13.156 -11.203 12.331 C-10.35 7.513 -9.231 4.675 -5.76 1.177 C-3.57 0.082 -2.42 0.035 0 0 Z " fill="#0F1729" transform="translate(377.759521484375,532.822998046875)"/>
<path d="M0 0 C0.76 -0.003 1.52 -0.006 2.303 -0.009 C3.132 -0.007 3.961 -0.004 4.816 -0.002 C5.692 -0.004 6.569 -0.006 7.472 -0.008 C10.373 -0.012 13.274 -0.009 16.175 -0.006 C18.186 -0.007 20.197 -0.007 22.208 -0.009 C26.423 -0.01 30.638 -0.008 34.853 -0.003 C40.268 0.002 45.683 -0.001 51.099 -0.007 C55.251 -0.011 59.403 -0.009 63.555 -0.007 C65.552 -0.006 67.55 -0.007 69.548 -0.009 C72.332 -0.012 75.117 -0.008 77.902 -0.002 C78.735 -0.004 79.568 -0.006 80.427 -0.009 C81.181 -0.006 81.935 -0.003 82.712 0 C83.371 0 84.03 0.001 84.709 0.001 C86.229 0.127 86.229 0.127 87.229 1.127 C87.301 9.189 85.85 17.273 84.479 25.189 C84.407 25.648 84.407 25.648 84.041 27.966 C83.961 28.4 83.961 28.4 83.557 30.6 C83.422 31.376 83.287 32.152 83.148 32.951 C81.822 36.092 80.06 37.257 77.229 39.127 C74.805 39.507 72.837 39.663 70.423 39.625 C69.759 39.631 69.095 39.636 68.41 39.642 C66.975 39.651 65.54 39.651 64.105 39.643 C61.83 39.631 59.557 39.642 57.282 39.659 C53.271 39.686 49.261 39.692 45.25 39.69 C38.835 39.688 32.42 39.702 26.004 39.746 C23.77 39.756 21.536 39.747 19.301 39.737 C17.922 39.743 16.544 39.75 15.165 39.758 C14.549 39.75 13.933 39.743 13.299 39.735 C8.095 39.795 4.486 41.318 0.436 44.564 C-6.4 52.224 -7.318 63.098 -9.133 72.888 C-9.458 74.628 -9.799 76.363 -10.14 78.1 C-13.63 96.75 -13.63 96.75 -10.083 102.689 C-6.853 106.095 -4.24 107.015 0.43 107.372 C1.648 107.38 2.865 107.378 4.083 107.366 C4.418 107.367 4.418 107.367 6.11 107.373 C7.555 107.376 9 107.375 10.445 107.371 C12.731 107.365 15.017 107.374 17.304 107.388 C23.802 107.425 30.3 107.444 36.798 107.432 C40.778 107.427 44.758 107.445 48.739 107.478 C50.255 107.486 51.771 107.485 53.286 107.474 C55.403 107.46 57.517 107.476 59.634 107.499 C60.261 107.488 60.887 107.476 61.533 107.464 C63.283 107.501 63.283 107.501 66.229 108.127 C68.61 111.043 69.25 112.405 69.143 116.186 C68.93 117.301 68.718 118.416 68.499 119.564 C68.388 120.167 68.278 120.77 68.164 121.39 C67.928 122.659 67.683 123.927 67.429 125.192 C67.044 127.118 66.684 129.047 66.329 130.979 C64.272 141.875 64.272 141.875 62.229 146.127 C59.111 147.686 55.797 147.283 52.374 147.288 C51.562 147.293 50.751 147.298 49.914 147.303 C47.219 147.318 44.523 147.325 41.827 147.33 C39.95 147.336 38.074 147.342 36.197 147.347 C32.254 147.358 28.31 147.364 24.367 147.367 C19.337 147.373 14.307 147.397 9.277 147.425 C5.395 147.444 1.513 147.449 -2.37 147.451 C-4.222 147.454 -6.075 147.462 -7.927 147.475 C-22.348 147.57 -36.87 146.939 -48.263 136.791 C-56.846 127.318 -60.35 116.553 -60.189 103.912 C-60.182 102.967 -60.174 102.021 -60.167 101.047 C-59.961 91.322 -58.475 81.915 -56.627 72.383 C-56.078 69.538 -55.564 66.688 -55.054 63.836 C-52.711 51.092 -49.915 38.861 -42.583 27.939 C-42.202 27.362 -41.82 26.784 -41.427 26.189 C-32.665 13.357 -21.494 5.904 -6.771 1.127 C-4.135 0.249 -2.686 0.002 0 0 Z " fill="#16A44B" transform="translate(929.7707824707031,574.8730163574219)"/>
<path d="M0 0 C0.643 -0.002 1.286 -0.004 1.948 -0.005 C4.059 -0.01 6.17 -0.007 8.28 -0.003 C9.75 -0.004 11.221 -0.005 12.691 -0.006 C15.764 -0.008 18.837 -0.006 21.91 -0.001 C25.857 0.005 29.804 0.001 33.751 -0.005 C36.782 -0.008 39.814 -0.007 42.845 -0.004 C44.302 -0.004 45.758 -0.005 47.214 -0.007 C49.242 -0.009 51.269 -0.006 53.297 0 C53.903 -0.002 54.508 -0.004 55.132 -0.006 C59.275 0.015 59.275 0.015 60.39 1.129 C60.745 7.861 59.742 14.198 58.577 20.817 C58.412 21.836 58.246 22.855 58.075 23.905 C56.404 33.545 56.404 33.545 53.39 37.129 C50.559 38.83 48.461 39.379 45.175 39.385 C44.354 39.392 43.533 39.399 42.687 39.406 C41.808 39.405 40.928 39.404 40.022 39.403 C38.149 39.423 36.275 39.444 34.401 39.465 C31.456 39.488 28.512 39.504 25.567 39.51 C22.718 39.52 19.871 39.554 17.022 39.59 C16.147 39.585 15.272 39.58 14.37 39.575 C7.804 39.68 4.76 41.159 -0.173 45.507 C-4.605 50.51 -5.298 58.914 -6.372 65.305 C-6.524 66.173 -6.676 67.041 -6.832 67.935 C-7.157 69.8 -7.48 71.666 -7.8 73.533 C-8.479 77.499 -9.174 81.464 -9.868 85.428 C-10.23 87.496 -10.591 89.565 -10.951 91.634 C-12.766 102.058 -14.63 112.474 -16.517 122.886 C-17.042 125.787 -17.563 128.688 -18.084 131.59 C-18.404 133.357 -18.724 135.124 -19.044 136.891 C-19.188 137.7 -19.333 138.51 -19.482 139.344 C-19.616 140.081 -19.751 140.818 -19.889 141.577 C-20.005 142.219 -20.121 142.86 -20.24 143.521 C-20.61 145.129 -20.61 145.129 -21.61 147.129 C-27.84 147.205 -34.069 147.258 -40.299 147.294 C-42.42 147.309 -44.54 147.33 -46.661 147.356 C-49.704 147.392 -52.747 147.409 -55.79 147.422 C-56.742 147.438 -57.694 147.453 -58.675 147.469 C-59.116 147.469 -59.116 147.469 -61.344 147.47 C-61.733 147.473 -61.733 147.473 -63.699 147.49 C-65.61 147.129 -65.61 147.129 -66.919 145.984 C-67.963 143.184 -67.422 141.049 -66.942 138.113 C-66.844 137.502 -66.747 136.89 -66.647 136.259 C-66.316 134.213 -65.965 132.171 -65.61 130.129 C-65.491 129.426 -65.371 128.722 -65.248 127.997 C-64.303 122.454 -63.311 116.92 -62.31 111.387 C-62.152 110.515 -61.995 109.643 -61.833 108.745 C-61 104.136 -60.164 99.527 -59.325 94.918 C-58.47 90.211 -57.626 85.502 -56.785 80.793 C-56.127 77.121 -55.459 73.451 -54.79 69.781 C-54.475 68.048 -54.164 66.314 -53.856 64.579 C-49.945 42.574 -44.951 21.831 -26.146 7.735 C-18.014 2.585 -9.571 -0.032 0 0 Z " fill="#16A44B" transform="translate(647.6103515625,574.87060546875)"/>
<path d="M0 0 C0.874 -0.004 1.747 -0.008 2.647 -0.012 C4.488 -0.014 6.329 -0.007 8.169 0.01 C10.99 0.031 13.808 0.01 16.629 -0.016 C18.419 -0.013 20.21 -0.008 22 0 C22.844 -0.008 23.688 -0.016 24.557 -0.025 C24.949 -0.018 24.949 -0.018 26.934 0.014 C27.279 0.015 27.279 0.015 29.022 0.023 C30.867 0.531 30.867 0.531 32.651 2.123 C34.32 5.428 33.839 8.063 33.259 11.585 C33.208 11.935 33.208 11.935 32.95 13.708 C32.61 15.986 32.242 18.258 31.867 20.531 C31.747 21.275 31.627 22.019 31.503 22.785 C30.586 28.424 29.598 34.05 28.602 39.676 C28.282 41.497 27.963 43.319 27.644 45.14 C26.808 49.913 25.968 54.684 25.126 59.456 C24.126 65.13 23.131 70.805 22.135 76.479 C21.322 81.118 20.507 85.756 19.69 90.393 C18.134 99.23 16.599 108.07 15.115 116.919 C14.84 118.553 14.565 120.187 14.29 121.82 C13.781 124.845 13.279 127.87 12.782 130.896 C12.556 132.244 12.329 133.592 12.103 134.94 C12.006 135.54 11.91 136.139 11.811 136.756 C10.409 144.99 10.409 144.99 7.867 147.531 C-2.771 148.73 -13.453 148.585 -24.133 148.219 C-24.709 148.201 -24.709 148.201 -27.623 148.114 C-28.699 148.07 -29.774 148.026 -30.883 147.98 C-31.365 147.962 -31.365 147.962 -33.805 147.866 C-36.133 147.531 -36.133 147.531 -38.133 145.531 C-38.065 143.303 -37.863 141.266 -37.539 139.07 C-37.444 138.373 -37.348 137.676 -37.25 136.958 C-35.727 126.196 -33.816 115.49 -31.957 104.782 C-31.406 101.602 -30.859 98.421 -30.311 95.241 C-29.392 89.913 -28.47 84.585 -27.547 79.258 C-26.483 73.123 -25.424 66.986 -24.367 60.85 C-23.343 54.905 -22.316 48.96 -21.288 43.015 C-20.854 40.502 -20.42 37.99 -19.987 35.477 C-19.382 31.966 -18.773 28.457 -18.164 24.948 C-18.076 24.434 -18.076 24.434 -17.629 21.835 C-16.851 17.371 -16.045 12.914 -15.134 8.476 C-15.063 8.124 -15.063 8.124 -14.7 6.346 C-14.133 4.531 -14.133 4.531 -12.079 2.002 C-7.986 -0.041 -4.518 -0.044 0 0 Z " fill="#0F1729" transform="translate(304.1328125,574.46875)"/>
<path d="M0 0 C2.049 -0.002 4.098 -0.021 6.147 -0.039 C7.46 -0.042 8.774 -0.044 10.087 -0.045 C10.39 -0.049 10.39 -0.049 11.927 -0.067 C15.352 -0.048 17.858 0.241 20.723 2.185 C22.656 6.897 21.307 12.294 20.598 17.185 C20.493 18.075 20.387 18.964 20.278 19.881 C20.216 20.312 20.216 20.312 19.903 22.498 C19.797 23.278 19.691 24.058 19.582 24.861 C18.366 28.153 16.707 30.382 13.723 32.185 C10.669 32.88 7.712 32.84 4.591 32.779 C3.717 32.779 2.843 32.779 1.943 32.779 C0.102 32.774 -1.738 32.756 -3.579 32.727 C-6.399 32.685 -9.218 32.686 -12.038 32.693 C-13.829 32.683 -15.619 32.67 -17.409 32.654 C-18.253 32.654 -19.097 32.654 -19.966 32.653 C-20.751 32.638 -21.535 32.622 -22.344 32.605 C-23.032 32.597 -23.721 32.588 -24.431 32.58 C-26.862 32.06 -27.775 31.135 -29.277 29.185 C-29.782 21.546 -28.851 8.536 -23.953 2.574 C-18.436 -1.997 -6.939 -0.001 0 0 Z " fill="#F0BF4C" transform="translate(323.276611328125,529.814697265625)"/>
</svg>
